# xmcd
#
# Track frame offsets:
#	150
#	70396
#	86906
#	104544
#	117863
#	132130
#	139556
#	155139
#	174686
#	187567
#
# Disc length: 2685 seconds
#
# Revision: 0
# Processed by: cddbd v1.5.1PL2 Copyright (c) Steve Scherf et al.
# Submitted via: dBpowerAMP V4.0
#
DISCID=880a7b0a
DTITLE=George Jones - Live In Concert
DYEAR=2004
DGENRE=Country
TTITLE0=Medley - Once You Had The Best, The Race Is On, Bartender Blues, You Better Treat Your Man Right, If Drinkin' Don't Kill Me, 
TTITLE1=Shine On
TTITLE2=I'm Not Ready Yet
TTITLE3=Why Lady Why
TTITLE4=He Stopped Loving Her Today
TTITLE5=White Lightin'
TTITLE6=Jambalaya (On The Bayou (With Lacy J. Dalton)
TTITLE7=You Win Again (With Terry Gibbs)
TTITLE8=She Thinks I Still Care
TTITLE9=A Picture Of Me Without You
EXTD=
EXTT0=
EXTT1=
EXTT2=
EXTT3=
EXTT4=
EXTT5=
EXTT6=
EXTT7=
EXTT8=
EXTT9=
PLAYORDER=
